<svg id="Calque_1" data-name="Calque 1" xmlns="http://www.w3.org/2000/svg" viewBox="0 0 35.88264 10.1854">
  <title>Logo HY 2018 web 3</title>
  <g>
    <path d="M7.74427,5.45248A.92867.92867,0,0,0,6.8126,6.46034a.93455.93455,0,1,0,1.86335,0A.92868.92868,0,0,0,7.74427,5.45248Z" fill="#1e1739"/>
    <g>
      <path d="M34.532,3.29868l.65456,4.11324a1.38962,1.38962,0,0,1-1.19973,1.55651l-4.78291.5867h5.11414a1.56308,1.56308,0,0,0,1.56308-1.56247l.00149-3.145A1.563,1.563,0,0,0,34.532,3.29868Z" fill="#1e1739"/>
      <path d="M21.71,9.0837l-.48537-3.96529a1.38959,1.38959,0,0,1,.46238-1.2236l.88311-.61088H1.56305A1.563,1.563,0,0,0,0,4.84763l.00149,3.145A1.56307,1.56307,0,0,0,1.56458,9.55513H21.86122A1.38381,1.38381,0,0,1,21.71,9.0837ZM5.19865,7.80476a.40753.40753,0,1,1-.815,0V6.80041H3.0879V7.80476a.40331.40331,0,0,1-.40267.41245.4129.4129,0,0,1-.41234-.41245V5.1158a.41288.41288,0,0,1,.41234-.41243.4033.4033,0,0,1,.40267.41243v.90807H4.38364V5.1158a.40753.40753,0,1,1,.815,0Zm2.54563.41254a1.757,1.757,0,1,1,1.74261-1.757A1.7312,1.7312,0,0,1,7.74428,8.2173Zm6.03506-.38836a.39064.39064,0,0,1-.78127,0V6.72808l-.60314.88927a.38866.38866,0,0,1-.34351.21908.38287.38287,0,0,1-.34252-.21693l-.61378-.89671V7.8241a.39065.39065,0,1,1-.78128,0V5.09164a.38414.38414,0,0,1,.38822-.38827.39675.39675,0,0,1,.35973.23248L12.051,6.60732l.97746-1.66581a.39488.39488,0,0,1,.35786-.23814.37607.37607,0,0,1,.39306.39311Zm3.27872.38827-1.71889.00009a.4174.4174,0,0,1-.41692-.41692v-2.68a.41748.41748,0,0,1,.41692-.417.40782.40782,0,0,1,.40716.417V7.42723h1.308a.393.393,0,0,1,.39254.3926A.398.398,0,0,1,17.05806,8.21721Zm3.28412-2.895-.99995,1.3679V7.80476a.40332.40332,0,0,1-.40269.41245.41289.41289,0,0,1-.41233-.41245V6.69015l-.99977-1.36762a.42884.42884,0,0,1-.07487-.23089.38868.38868,0,0,1,.37861-.38827.3825.3825,0,0,1,.31729.16591l.78625,1.07138.78551-1.07043a.38337.38337,0,0,1,.31808-.16686.38963.38963,0,0,1,.30387.61888Z" fill="#1e1739"/>
    </g>
    <path d="M27.90647,5.27241a.93879.93879,0,0,0-.95926,1.00246.94473.94473,0,1,0,1.88336.03253A.93881.93881,0,0,0,27.90647,5.27241Z" fill="#901309"/>
    <path d="M33.46083,2.2273,27.74833.08242a.8114.8114,0,0,0-.9081.13413L22.01871,4.04243a1.38962,1.38962,0,0,0-.42743,1.23624l.5917,3.73438a1.38963,1.38963,0,0,0,1.59,1.155l9.8898-1.567a1.38962,1.38962,0,0,0,1.155-1.59l-.59461-3.75276A1.38963,1.38963,0,0,0,33.46083,2.2273ZM25.67652,5.56321,24.88616,7.062l.16212,1.10277a.40332.40332,0,0,1-.33841.46661.41289.41289,0,0,1-.46794-.34807l-.16212-1.10276-1.188-1.20767a.42873.42873,0,0,1-.10769-.21755.3887.3887,0,0,1,.31811-.43922.38258.38258,0,0,1,.33806.118l.93373.94563.62144-1.17332a.38336.38336,0,0,1,.29043-.21135.38965.38965,0,0,1,.39066.56811Zm3.97375.75835a1.76172,1.76172,0,1,1-1.73073-1.80632A1.75012,1.75012,0,0,1,29.65027,6.32156Zm3.62193-.52268a1.48711,1.48711,0,0,1-2.94235.43257l-.2404-1.63532a.40754.40754,0,1,1,.80636-.11855l.24952,1.69731A.67241.67241,0,0,0,32.475,5.97941l-.24953-1.6973a.40754.40754,0,1,1,.80635-.11854Z" fill="#901309"/>
  </g>
</svg>
